<svg xmlns="http://www.w3.org/2000/svg" version="1.1" xmlns:xlink="http://www.w3.org/1999/xlink" xmlns:svgjs="http://svgjs.com/svgjs" width="160" height="160"><svg version="1.0" xmlns="http://www.w3.org/2000/svg" width="160" height="160" viewBox="0 0 120 120">
    <style>
        .favicon {
            fill: #1e1e1f;
        }

        @media ( prefers-color-scheme: dark ) {
            .favicon {
                fill: #E2E0DF;
            }
        }
    </style>
    <g class="favicon">
        <path d="M64.3 14.6c-7.2 1.5-15.7 5-17.4 7-1.8 2.2-2.4 1.7-2.3-2.1l.2-3.5-9.2.5c-5 .2-14 .8-20.1 1.1-6 .4-12 .6-13.2.6-2-.2-2.3.3-2.3 3.2 0 3.1.3 3.4 4.3 4.5 5.2 1.3 9.4 5.2 10.2 9.5.3 1.7.5 15.8.3 31.3-.3 27.3-.4 28.3-2.4 30.4-1.3 1.3-3.9 2.3-6.6 2.6-4.2.5-4.4.7-4.6 3.9L.9 107H62v-3c0-3.3.1-3.2-8.3-5-9.2-1.9-9-1.1-9.1-35.8-.1-32.5-.1-32.4 5.9-34 3.4-.9 9.1 0 8.8 1.4-.2.5-1.2 3.4-2.2 6.4-5.4 15.2 2 31.9 17.3 39.1 5.2 2.5 6.9 2.8 14 2.6 6.5-.2 9.1-.8 13.3-3 22.4-11.6 24.5-41.6 3.9-55.4-2.6-1.8-7.1-4-9.9-4.9-6.8-2.1-23.5-2.6-31.4-.8z"></path>
        <path d="m64.4 90.5 6.1 16.5H120v-3c0-3.3-.5-3.6-6.3-4.5-6-.8-9-2.9-13-8.9-3.4-5.1-3.9-5.4-6.4-4.7-8.7 2.4-23-1.4-31.9-8.5l-4.1-3.3 6.1 16.4z"></path>
    </g>
</svg>