<?xml version="1.0" standalone="no"?>
<!DOCTYPE svg PUBLIC "-//W3C//DTD SVG 20010904//EN"
 "http://www.w3.org/TR/2001/REC-SVG-20010904/DTD/svg10.dtd">
<svg version="1.0" xmlns="http://www.w3.org/2000/svg"
 width="700.000000pt" height="700.000000pt" viewBox="0 0 700.000000 700.000000"
 preserveAspectRatio="xMidYMid meet">
<metadata>
Created by potrace 1.14, written by Peter Selinger 2001-2017
</metadata>
<style>
        .favicon {
            fill: #1e1e1f;
        }

        @media ( prefers-color-scheme: dark ) {
            .favicon {
                fill: #E2E0DF;
            }
        }
    </style>
<g class="favicon" transform="translate(0.000000,700.000000) scale(0.100000,-0.100000)"
 stroke="none">
<path d="M4447 6214 c-1 -1 -76 -4 -167 -8 -91 -3 -181 -8 -200 -10 -19 -3
-62 -7 -95 -11 -260 -27 -622 -127 -918 -254 -178 -76 -287 -142 -355 -215
-93 -99 -114 -61 -106 189 l4 163 -42 -3 c-24 -2 -97 -6 -163 -10 -66 -4 -151
-8 -190 -11 -38 -2 -124 -6 -190 -9 -167 -8 -287 -14 -375 -20 -41 -2 -127 -7
-190 -11 -63 -4 -133 -8 -155 -9 -22 -1 -107 -6 -190 -10 -82 -4 -166 -8 -185
-10 -19 -2 -96 -7 -170 -11 -74 -3 -157 -8 -185 -9 -27 -2 -153 -6 -280 -10
-304 -9 -297 -4 -292 -213 3 -94 7 -117 24 -139 26 -35 89 -66 188 -93 278
-74 480 -222 584 -427 60 -119 66 -231 65 -1298 0 -1275 -18 -2064 -48 -2230
-16 -84 -21 -104 -39 -135 -26 -48 -74 -97 -123 -126 -44 -26 -164 -76 -164
-68 0 3 -8 0 -18 -5 -9 -5 -67 -16 -128 -25 -60 -9 -123 -19 -139 -22 -50 -9
-95 -35 -110 -65 -14 -27 -17 -43 -30 -199 -4 -41 -8 -90 -10 -107 -4 -30 -2
-33 23 -34 15 0 817 -1 1783 -2 l1756 -2 -2 147 c-1 118 -5 151 -18 172 -33
50 -110 77 -377 132 -206 42 -316 71 -366 95 -97 46 -146 112 -184 251 -22 82
-26 107 -45 303 -27 275 -28 2843 -1 3015 2 14 8 48 12 75 4 28 8 52 9 55 0 3
4 22 8 42 18 88 72 170 134 201 39 21 159 57 213 65 70 10 249 6 315 -8 70
-14 130 -43 139 -65 3 -9 -17 -82 -45 -163 -60 -176 -109 -321 -114 -342 -50
-195 -60 -279 -60 -485 0 -186 4 -224 39 -394 41 -193 174 -489 294 -650 122
-165 292 -339 412 -424 293 -205 581 -335 800 -363 62 -8 407 -7 515 1 71 5
138 12 210 21 269 33 656 246 916 504 171 169 278 318 380 525 56 116 122 294
134 364 3 19 7 37 9 40 2 3 7 22 10 41 3 19 8 46 10 59 16 76 21 158 20 336 0
178 -3 214 -28 330 -15 72 -41 171 -57 220 -157 472 -493 853 -964 1093 -241
123 -404 179 -590 206 -22 3 -49 7 -60 10 -11 2 -45 6 -75 10 -30 3 -82 8
-114 12 -89 9 -125 12 -316 19 -182 7 -330 11 -333 9z"/>
<path d="M3410 2660 c0 -5 90 -251 200 -545 110 -295 200 -540 200 -545 0 -6
4 -18 10 -28 9 -16 24 -56 84 -222 15 -41 31 -84 36 -95 5 -11 45 -120 90
-243 61 -163 87 -222 99 -223 24 0 2833 -1 2854 0 16 1 18 13 16 135 -2 233
-18 246 -359 301 -221 35 -319 71 -445 160 -112 79 -195 177 -387 455 -101
147 -170 206 -224 196 -11 -2 -64 -13 -119 -24 -55 -12 -125 -24 -155 -27 -55
-6 -259 -7 -315 -1 -418 44 -832 186 -1174 403 -55 35 -191 132 -201 143 -22
25 -210 169 -210 160z"/>
</g>
</svg>
